<svg width="32" height="32" viewBox="0 0 32 32" fill="none" xmlns="http://www.w3.org/2000/svg">
<g clip-path="url(#clip0_2046_503)">
<mask id="mask0_2046_503" style="mask-type:luminance" maskUnits="userSpaceOnUse" x="0" y="0" width="32" height="32">
<path d="M32 0H0V32H32V0Z" fill="white"/>
</mask>
<g mask="url(#mask0_2046_503)">
<path d="M32 16C32 24.8366 24.8366 32 16 32C7.16345 32 0 24.8366 0 16C0 7.16345 7.16345 0 16 0C24.8366 0 32 7.16345 32 16Z" fill="#1F267B"/>
<path fill-rule="evenodd" clip-rule="evenodd" d="M16.0153 6.2019L15.5026 7.08894C15.4912 7.10882 15.4797 7.12867 15.4682 7.14856L6.33691 22.9457H25.6938L16.0153 6.2019ZM12.7991 14.14L8.40263 21.7459C10.6893 21.6912 12.7457 21.4252 14.2809 20.6522C14.7705 20.4058 15.2029 20.1096 15.572 19.7538C14.5955 19.0873 13.8922 18.3201 13.4343 17.4622C12.8852 16.4333 12.7125 15.3175 12.7968 14.17C12.7976 14.16 12.7983 14.15 12.7991 14.14ZM14.7255 21.7577H23.6194C22.4081 19.771 21.0952 18.0343 19.6209 16.9994C19.1693 16.6823 18.7079 16.4351 18.2339 16.2664C18.1528 17.5198 17.842 18.5696 17.3249 19.4387C16.7159 20.4622 15.8448 21.1949 14.8152 21.7133C14.7854 21.7282 14.7555 21.743 14.7255 21.7577ZM20.3361 16.0507L16.0223 8.58768C14.9168 10.6119 14.1083 12.5404 13.9821 14.2564C13.9513 14.6749 13.9616 15.0773 14.0172 15.4634C15.0769 14.9691 16.0953 14.7683 17.0729 14.8267C18.2577 14.8975 19.3325 15.346 20.3038 16.0278C20.3146 16.0354 20.3253 16.043 20.3361 16.0507ZM14.4831 16.903C14.434 16.811 14.3885 16.7177 14.3467 16.6232C15.3205 16.137 16.2005 15.9642 17.0025 16.0121C17.021 16.0131 17.0395 16.0144 17.0579 16.0157C17.0053 17.1925 16.7329 18.1052 16.311 18.8194C15.429 18.231 14.8464 17.5837 14.4831 16.903Z" fill="#FAFAFA"/>
</g>
</g>
<defs>
<clipPath id="clip0_2046_503">
<rect width="32" height="32" fill="white"/>
</clipPath>
</defs>
</svg>
